HIERARCHY
ROOT Hips
{
    OFFSET 0.000000 0.000000 0.000000
    CHANNELS 6 Xposition Yposition Zposition Zrotation Xrotation Yrotation
    JOINT Spine
    {
        OFFSET -0.000000 14.517291 0.000000
        CHANNELS 3 Zrotation Xrotation Yrotation
        JOINT Spine1
        {
            OFFSET -0.000000 37.558300 0.000000
            CHANNELS 3 Zrotation Xrotation Yrotation
            JOINT Neck
            {
                OFFSET -0.000000 37.404057 3.400369
                CHANNELS 3 Zrotation Xrotation Yrotation
                JOINT Head
                {
                    OFFSET -0.000000 24.785618 -3.540803
                    CHANNELS 3 Zrotation Xrotation Yrotation
                    End Site
                    {
                        OFFSET -0.000000 35.408028 0.000000
                    }
                }
            }
            JOINT LeftShoulder
            {
                OFFSET 6.992933 33.973492 -0.192664
                CHANNELS 3 Zrotation Xrotation Yrotation
                JOINT LeftArm
                {
                    OFFSET 21.527611 0.000000 0.000000
                    CHANNELS 3 Zrotation Xrotation Yrotation
                    JOINT LeftForeArm
                    {
                        OFFSET 56.353916 0.000000 0.000000
                        CHANNELS 3 Zrotation Xrotation Yrotation
                        JOINT LeftHand
                        {
                            OFFSET 47.774071 0.000000 0.000000
                            CHANNELS 3 Zrotation Xrotation Yrotation
                            End Site
                            {
                                OFFSET 26.556021 0.000000 0.000000
                            }
                        }
                    }
                }
            }
            JOINT RightShoulder
            {
                OFFSET -7.065357 33.973492 -0.192664
                CHANNELS 3 Zrotation Xrotation Yrotation
                JOINT RightArm
                {
                    OFFSET -21.527611 0.000000 0.000000
                    CHANNELS 3 Zrotation Xrotation Yrotation
                    JOINT RightForeArm
                    {
                        OFFSET -56.353916 0.000000 0.000000
                        CHANNELS 3 Zrotation Xrotation Yrotation
                        JOINT RightHand
                        {
                            OFFSET -47.774071 0.000000 0.000000
                            CHANNELS 3 Zrotation Xrotation Yrotation
                            End Site
                            {
                                OFFSET -26.556021 0.000000 0.000000
                            }
                        }
                    }
                }
            }
        }
    }
    JOINT LeftUpLeg
    {
        OFFSET 17.704014 0.000000 0.000000
        CHANNELS 3 Zrotation Xrotation Yrotation
        JOINT LeftLeg
        {
            OFFSET -0.000000 -81.181816 0.000000
            CHANNELS 3 Zrotation Xrotation Yrotation
            JOINT LeftFoot
            {
                OFFSET -0.000000 -62.821102 0.000000
                CHANNELS 3 Zrotation Xrotation Yrotation
                JOINT LeftToeBase
                {
                    OFFSET -0.000000 -11.507608 26.556021
                    CHANNELS 3 Zrotation Xrotation Yrotation
                    End Site
                    {
                        OFFSET -0.000000 0.000000 7.081605
                    }
                }
            }
        }
    }
    JOINT RightUpLeg
    {
        OFFSET -17.704014 0.000000 0.000000
        CHANNELS 3 Zrotation Xrotation Yrotation
        JOINT RightLeg
        {
            OFFSET -0.000000 -81.181816 0.000000
            CHANNELS 3 Zrotation Xrotation Yrotation
            JOINT RightFoot
            {
                OFFSET -0.000000 -62.821102 0.000000
                CHANNELS 3 Zrotation Xrotation Yrotation
                JOINT RightToeBase
                {
                    OFFSET -0.000000 -11.507608 26.556021
                    CHANNELS 3 Zrotation Xrotation Yrotation
                    End Site
                    {
                        OFFSET -0.000000 0.000000 7.081605
                    }
                }
            }
        }
    }
}
MOTION
Frames:    6
Frame Time:    0.008333
27.334076    149.734451    -111.227737    0.405076    -9.360270    12.223400    -1.193824    0.920553    -5.869799    -1.177547    4.100288    -1.918097    6.587701    -1.395766    -6.097050    5.097193    9.898923    -7.126462    4.669918    10.488507    -23.774883    -31.365629    23.755730    -45.474442    11.409570    -33.376072    -87.866219    1.366248    -23.802851    -11.722816    -4.034952    4.737559    -3.282419    34.206020    -8.474894    70.790886    -17.892963    -10.730859    71.177780    -11.716754    -1.466311    34.369022    11.077977    6.124239    14.811644    -20.028856    43.816463    -6.417191    13.963796    -36.144661    51.033012    0.000000    0.000000    0.000000    -16.765980    -24.452456    -2.768555    14.085502    32.042019    -10.764258    6.673695    7.272503    -8.307404    0.000000    0.000000    0.000000    
27.295006    149.730164    -111.256218    0.441999    -9.377319    12.315860    -1.193686    0.949616    -5.872789    -1.197582    4.103547    -1.918405    6.579851    -1.400219    -6.103868    5.072021    9.873208    -7.132809    4.656874    10.501079    -23.809685    -31.343594    23.766809    -45.472782    11.488029    -33.423405    -87.789612    1.230445    -23.785915    -11.798018    -4.056038    4.734495    -3.289437    34.389469    -8.603312    70.804688    -17.695698    -10.541426    71.275459    -11.767288    -1.412302    34.365837    11.096902    6.105874    14.731077    -20.097948    43.829132    -6.426512    14.009335    -36.099941    51.072624    0.000000    0.000000    0.000000    -16.804878    -24.438986    -2.746319    14.100672    32.083618    -10.784659    6.706902    7.251650    -8.361484    0.000000    0.000000    0.000000    
27.259815    149.725235    -111.286507    0.479590    -9.392606    12.389709    -1.170066    0.971955    -5.855271    -1.269748    4.123804    -1.909753    6.565542    -1.394366    -6.133249    5.109970    9.813527    -7.155947    4.686900    10.507125    -23.830223    -31.313061    23.787573    -45.510921    11.548344    -33.473663    -87.749153    1.225489    -23.793783    -11.809775    -4.039979    4.718455    -3.306378    34.158707    -8.451618    70.756447    -17.930422    -10.885640    71.141724    -11.662281    -1.586922    34.362316    11.103039    6.096526    14.681316    -20.135490    43.834061    -6.450134    14.044597    -36.067513    51.081078    0.000000    0.000000    0.000000    -16.836536    -24.431038    -2.738075    14.098833    32.120815    -10.795731    6.731940    7.245971    -8.407847    0.000000    0.000000    0.000000    
27.231873    149.717606    -111.314514    0.524046    -9.416716    12.456591    -1.147583    1.003088    -5.840724    -1.338616    4.144465    -1.902201    6.552042    -1.402426    -6.149721    5.131649    9.777565    -7.168531    4.699339    10.520615    -23.836210    -31.291553    23.774336    -45.541264    11.550899    -33.488335    -87.739990    1.177676    -23.805149    -11.854633    -4.033706    4.713147    -3.310451    34.151722    -8.460773    70.743484    -17.926748    -10.937268    71.141953    -11.612857    -1.625319    34.350143    11.098608    6.108415    14.654091    -20.145012    43.833485    -6.501604    14.060073    -36.055843    51.070946    0.000000    0.000000    0.000000    -16.874252    -24.413534    -2.734527    14.100174    32.159809    -10.799094    6.741025    7.228990    -8.449286    0.000000    0.000000    0.000000    
27.201725    149.712769    -111.339478    0.567848    -9.444097    12.520297    -1.144938    1.049345    -5.826554    -1.372035    4.148510    -1.896331    6.515354    -1.383240    -6.171593    5.173675    9.716882    -7.179090    4.693075    10.538367    -23.837526    -31.284990    23.744421    -45.569405    11.547054    -33.459263    -87.735085    1.232926    -23.782946    -11.869403    -4.044353    4.723988    -3.311460    34.155136    -8.483215    70.737679    -17.894970    -10.980360    71.153648    -11.595490    -1.686734    34.368320    11.095124    6.120071    14.648223    -20.131754    43.849644    -6.568473    14.088991    -36.022331    51.064243    0.000000    0.000000    0.000000    -16.901936    -24.384378    -2.718951    14.089121    32.182114    -10.774865    6.753126    7.200718    -8.506654    0.000000    0.000000    0.000000    
27.178335    149.708725    -111.365685    0.614738    -9.468902    12.570185    -1.140415    1.089706    -5.806946    -1.410322    4.163089    -1.888332    6.501211    -1.373657    -6.186590    5.181625    9.655650    -7.188612    4.679634    10.557707    -23.828606    -31.277021    23.704475    -45.595177    11.489936    -33.429161    -87.796753    1.330357    -23.799217    -11.846394    -4.045703    4.732018    -3.307650    34.150990    -8.509963    70.742378    -17.876154    -11.014058    71.150558    -11.587180    -1.730860    34.348686    11.074037    6.135430    14.678051    -20.081470    43.857300    -6.646370    14.070843    -36.017380    51.037189    0.000000    0.000000    0.000000    -16.932199    -24.359877    -2.714953    14.076527    32.202824    -10.753785    6.744197    7.186339    -8.546893    0.000000    0.000000    0.000000    
